<?xml version="1.0" encoding="UTF-8"?>
<svg width="1200pt" height="1200pt" version="1.1" viewBox="0 0 1200 1200" xmlns="http://www.w3.org/2000/svg">
 <path d="m1087.5 337.5c-41.363 0-75 33.637-75 75 0 8.8516 1.8203 17.23 4.6484 25.125-2.832 2.793-5.6641 5.625-8.5312 8.4922-16.48 16.484-41.379 41.383-52.367 41.383s-28.727-17.738-42.992-32.008c-21.133-21.129-42.996-42.992-69.508-42.992-30.824 0-46.594 42.977-74.043 125.32-9.4492 28.387-24.133 72.375-35.305 91.727-9.6562-28.312-20.605-98.082-28.949-151.29-27.602-176.1-44.141-253.26-86.703-253.26-43.105 0-58.801 85.914-86.773 296.85-9.0742 68.418-21.188 159.66-31.707 187.65-10.312-8.3633-26.211-32.23-34.668-44.906-22.145-33.207-43.07-64.594-71.852-64.594-31.18 0-43.742 44.812-74.551 183.43-11.398 51.262-27.992 125.96-40.332 149.89-10.949-14.023-26.57-53.082-36.449-77.773-24.504-61.273-42.223-105.54-73.668-105.54-26.512 0-48.375 21.863-69.508 42.992-14.266 14.27-32.004 32.008-42.992 32.008v37.5c26.512 0 48.375-21.863 69.508-42.992 13.613-13.613 30.395-30.395 41.438-31.895 10.801 7.875 29.25 53.98 40.387 81.844 24.504 61.273 42.223 105.54 73.668 105.54 31.18 0 43.742-44.812 74.551-183.43 11.867-53.398 29.363-132.17 41.852-152.61 10.125 6.5078 27.711 32.867 36.75 46.445 22.141 33.203 43.066 64.59 71.848 64.59 30.414 0 38.512-39.449 62.887-223.22 11.625-87.656 30.637-230.95 50.25-261.21 18.805 25.762 37.539 145.26 49.031 218.48 22.746 145.07 31.445 190.95 62.832 190.95 30.824 0 46.594-42.977 74.043-125.32 11.137-33.395 29.457-88.387 40.836-99.43 11.043 2.1953 27.336 18.469 40.613 31.742 21.133 21.148 42.996 43.012 69.508 43.012s51.957-25.426 78.883-52.367c1.1445-1.1445 2.3984-2.3984 3.6172-3.6016 13.145 11.344 30.055 18.469 48.75 18.469 41.363 0 75-33.637 75-75s-33.637-75-75-75z"/>
</svg>
